<svg width="280" height="76" viewBox="0 0 280 76" fill="none" xmlns="http://www.w3.org/2000/svg">
<path fill-rule="evenodd" clip-rule="evenodd" d="M143.914 14.2776H171.096V1.00342H139.348C130.782 1.04082 121.052 8.04886 121.052 20.4378C121.052 25.8493 123.1 31.1517 127.427 34.5385C121.494 38.6808 117.657 45.1548 117.657 52.8496C117.657 66.3108 129.142 75.8475 143.124 75.9903H171.096V62.6756H143.383C138.538 62.1343 135 57.4958 135 52.6901C135 47.5467 138.79 42.7986 143.247 42.7986H171.096V29.6886H143.37C140.212 29.2117 137.341 26.2238 137.341 22.1398C137.341 17.5039 140.104 14.2776 143.914 14.2776Z" fill="#81B33B"/>
<path fill-rule="evenodd" clip-rule="evenodd" d="M217.251 37.6945C217.251 30.1586 213.55 23.7777 207.828 19.6385C211.937 15.8433 214.448 10.8131 214.448 5.29617C214.448 3.43103 214.162 1.65057 213.699 0H197.573C198.145 1.32066 198.479 3.27776 198.356 5.85415C198.145 10.1492 195.805 13.7849 191.92 14.5538H173.957V27.8477H192.239C197.091 28.7668 199.901 33.2047 199.901 37.5548C199.901 42.3537 196.356 46.9963 191.518 47.534H172.787V60.8685H191.797V60.8353C205.772 60.709 217.251 51.1895 217.251 37.6945Z" fill="#81B33B"/>
<path fill-rule="evenodd" clip-rule="evenodd" d="M31.516 15.3355H51.5741V2.00732H29.0223C12.6892 3.13732 0 15.2467 0 32.5509C0 49.8884 12.5635 61.8175 28.8011 63.0566H51.5741V49.7248H31.5025C22.7725 49.3434 17.9897 40.011 17.9897 32.7889C17.9897 25.427 22.3612 15.9211 31.516 15.3355Z" fill="#81B33B"/>
<path fill-rule="evenodd" clip-rule="evenodd" d="M280 29.1954C280 12.3307 268.719 0 248.885 0C231.372 0 219.73 12.2086 219.73 29.1954V48.7996H259.623V35.4886H235.706V29.1954C235.706 22.2081 238.387 14.3086 249.566 14.3086C259.588 14.3086 264.031 20.3259 264.031 29.1954V75.9564H280V29.1954Z" fill="#81B33B"/>
<path fill-rule="evenodd" clip-rule="evenodd" d="M55.0186 2.00684V62.7532H70.9736V15.1137H89.1949C92.5081 15.6005 95.774 18.6196 95.774 22.7073C95.774 26.7436 93.9102 29.5548 90.3447 30.3855H74.3216V43.3667H90.474C94.9306 43.9148 98.1217 48.6286 98.1217 53.1621C98.1217 57.8997 94.5702 62.1308 89.7256 62.7532H71.0006V75.9999H90.0045V75.9729C103.987 75.8503 115.465 66.6264 115.465 53.2883C115.465 45.6745 111.62 39.2655 105.687 35.1876C109.654 32.3255 112.07 27.2403 112.07 21.223C112.07 9.81445 102.333 2.04424 93.7669 2.00684H55.0186Z" fill="#81B33B"/>
</svg>
