<svg width="66" height="28" viewBox="0 0 66 28" fill="none" xmlns="http://www.w3.org/2000/svg">
<path fill-rule="evenodd" clip-rule="evenodd" d="M46.4376 17.1554H50.3446V14.8589H45.7814C44.5501 14.8654 43.1517 16.0778 43.1517 18.2212C43.1517 19.1574 43.446 20.0748 44.068 20.6608C43.2152 21.3774 42.6636 22.4975 42.6636 23.8287C42.6636 26.1576 44.3144 27.8076 46.3241 27.8323H50.3446V25.5287H46.3613C45.665 25.4351 45.1565 24.6326 45.1565 23.8011C45.1565 22.9113 45.7012 22.0898 46.3418 22.0898H50.3446V19.8217H46.3594C45.9056 19.7392 45.4929 19.2222 45.4929 18.5157C45.4929 17.7136 45.89 17.1554 46.4376 17.1554Z" fill="#8BBB42"/>
<path fill-rule="evenodd" clip-rule="evenodd" d="M56.9799 21.3804C56.9799 20.0766 56.4479 18.9726 55.6255 18.2565C56.2162 17.5999 56.577 16.7297 56.577 15.7752C56.577 15.4525 56.5359 15.1445 56.4694 14.8589H54.1516C54.2338 15.0874 54.2817 15.426 54.2641 15.8717C54.2338 16.6148 53.8974 17.2438 53.339 17.3768H50.7571V19.6768H53.3849C54.0822 19.8358 54.4861 20.6036 54.4861 21.3562C54.4861 22.1865 53.9766 22.9897 53.2813 23.0827H50.5889V25.3897H53.3213V25.3839C55.33 25.3621 56.9799 23.7151 56.9799 21.3804Z" fill="#8BBB42"/>
<path fill-rule="evenodd" clip-rule="evenodd" d="M30.2814 17.1648H33.1644V14.8589H29.923C27.5753 15.0544 25.7515 17.1494 25.7515 20.1432C25.7515 23.1427 27.5573 25.2066 29.8912 25.4209H33.1644V23.1144H30.2795C29.0247 23.0484 28.3372 21.4338 28.3372 20.1844C28.3372 18.9107 28.9655 17.2661 30.2814 17.1648Z" fill="#8BBB42"/>
<path fill-rule="evenodd" clip-rule="evenodd" d="M65.9999 19.9099C65.9999 16.9922 64.3783 14.8589 61.5274 14.8589C59.0099 14.8589 57.3364 16.9711 57.3364 19.9099V23.3017H63.0708V20.9987H59.6329V19.9099C59.6329 18.7011 60.0182 17.3344 61.6252 17.3344C63.0658 17.3344 63.7044 18.3754 63.7044 19.9099V28H65.9999V19.9099Z" fill="#8BBB42"/>
<path fill-rule="evenodd" clip-rule="evenodd" d="M33.6602 14.8589V25.3685H35.9536V17.1265H38.5728C39.0491 17.2107 39.5186 17.733 39.5186 18.4402C39.5186 19.1386 39.2506 19.6249 38.7381 19.7687H36.4349V22.0145H38.7567C39.3973 22.1093 39.856 22.9249 39.856 23.7092C39.856 24.5288 39.3455 25.2609 38.6491 25.3685H35.9575V27.6603H38.6892V27.6557C40.6991 27.6344 42.349 26.0386 42.349 23.731C42.349 22.4138 41.7964 21.305 40.9436 20.5995C41.5138 20.1043 41.861 19.2245 41.861 18.1834C41.861 16.2097 40.4614 14.8654 39.23 14.8589H33.6602Z" fill="#8BBB42"/>
<path fill-rule="evenodd" clip-rule="evenodd" d="M15.8493 0.0888672C13.0334 0.0888672 10.7478 2.83987 10.7478 6.23104C10.7478 9.61753 13.0334 12.371 15.8493 12.371C18.6636 12.371 20.9699 9.61753 20.9699 6.23104C20.9699 2.83987 18.6636 0.0888672 15.8493 0.0888672Z" fill="#8BBB42"/>
<mask id="mask0" mask-type="alpha" maskUnits="userSpaceOnUse" x="0" y="0" width="22" height="26">
<path fill-rule="evenodd" clip-rule="evenodd" d="M0 0H21.3903V25.7607H0V0Z" fill="white"/>
</mask>
<g mask="url(#mask0)">
<path fill-rule="evenodd" clip-rule="evenodd" d="M9.7981 24.4312C3.79727 24.0702 -0.105592 18.7036 1.12602 11.8388C2.26663 5.36634 7.54561 0.300445 13.1743 -0.000488281H-0.000488281V25.7602H21.3899V17.6236C18.9279 22.3049 14.2831 24.685 9.7981 24.4312Z" fill="#8BBB42"/>
</g>
</svg>
