<svg width="108" height="46" viewBox="0 0 108 46" fill="none" xmlns="http://www.w3.org/2000/svg">
<path fill-rule="evenodd" clip-rule="evenodd" d="M75.9901 28.1838H82.3834V24.4109H74.9163C72.9016 24.4215 70.6131 26.4134 70.6131 29.9347C70.6131 31.4728 71.0947 32.9799 72.1125 33.9425C70.7171 35.1199 69.8145 36.96 69.8145 39.1471C69.8145 42.9731 72.5158 45.6837 75.8045 45.7243H82.3834V41.9399H75.8653C74.7258 41.786 73.8937 40.4677 73.8937 39.1017C73.8937 37.6398 74.7851 36.2903 75.8333 36.2903H82.3834V32.564H75.8621C75.1195 32.4285 74.4442 31.5793 74.4442 30.4184C74.4442 29.1008 75.094 28.1838 75.9901 28.1838Z" fill="#8BBB42"/>
<path fill-rule="evenodd" clip-rule="evenodd" d="M93.2393 35.1248C93.2393 32.9828 92.3688 31.1692 91.0229 29.9927C91.9895 28.914 92.58 27.4843 92.58 25.9162C92.58 25.3861 92.5128 24.88 92.4038 24.4109H88.6111C88.7456 24.7863 88.824 25.3425 88.7952 26.0748C88.7456 27.2956 88.1951 28.329 87.2814 28.5475H83.0566V32.326H87.3565C88.4977 32.5872 89.1586 33.8486 89.1586 35.085C89.1586 36.449 88.3247 37.7686 87.187 37.9214H82.7812V41.7115H87.2524V41.702C90.5395 41.6661 93.2393 38.9604 93.2393 35.1248Z" fill="#8BBB42"/>
<path fill-rule="evenodd" clip-rule="evenodd" d="M49.5512 28.1994H54.2689V24.4111H48.9647C45.1232 24.7323 42.1387 28.1741 42.1387 33.0925C42.1387 38.0203 45.0936 41.4109 48.9127 41.7631H54.2689V37.9738H49.5481C47.4948 37.8654 46.3699 35.2129 46.3699 33.1601C46.3699 31.0677 47.398 28.3658 49.5512 28.1994Z" fill="#8BBB42"/>
<path fill-rule="evenodd" clip-rule="evenodd" d="M108.001 32.7093C108.001 27.9159 105.347 24.4111 100.682 24.4111C96.5626 24.4111 93.8242 27.8812 93.8242 32.7093V38.2814H103.208V34.498H97.582V32.7093C97.582 30.7233 98.2126 28.478 100.842 28.478C103.199 28.478 104.245 30.1883 104.245 32.7093V46.0001H108.001V32.7093Z" fill="#8BBB42"/>
<path fill-rule="evenodd" clip-rule="evenodd" d="M55.0801 24.4109V41.6768H58.833V28.1362H63.119C63.8983 28.2746 64.6665 29.1327 64.6665 30.2946C64.6665 31.4418 64.2281 32.2408 63.3894 32.4769H59.6205V36.1666H63.4198C64.4681 36.3223 65.2187 37.6621 65.2187 38.9507C65.2187 40.2973 64.3834 41.4999 63.2438 41.6768H58.8394V45.4418H63.3094V45.4342C66.5983 45.3993 69.2982 42.7776 69.2982 38.9866C69.2982 36.8225 68.3939 35.0009 66.9983 33.8418C67.9314 33.0283 68.4996 31.583 68.4996 29.8727C68.4996 26.63 66.2094 24.4215 64.1944 24.4109H55.0801Z" fill="#8BBB42"/>
<path fill-rule="evenodd" clip-rule="evenodd" d="M25.9357 0.14624C21.328 0.14624 17.5879 4.66575 17.5879 10.237C17.5879 15.8005 21.328 20.324 25.9357 20.324C30.5409 20.324 34.3148 15.8005 34.3148 10.237C34.3148 4.66575 30.5409 0.14624 25.9357 0.14624Z" fill="#8BBB42"/>
<mask id="mask0" mask-type="alpha" maskUnits="userSpaceOnUse" x="0" y="0" width="36" height="43">
<path fill-rule="evenodd" clip-rule="evenodd" d="M0 0H35.0022V42.3211H0V0Z" fill="white"/>
</mask>
<g mask="url(#mask0)">
<path fill-rule="evenodd" clip-rule="evenodd" d="M16.034 40.1373C6.21449 39.5443 -0.171987 30.7276 1.84336 19.4498C3.70981 8.81644 12.3481 0.493902 21.5587 -0.000488281H0V42.3207H35.0022V28.9534C30.9736 36.6441 23.3731 40.5543 16.034 40.1373Z" fill="#8BBB42"/>
</g>
</svg>
