<svg width="836" height="226" viewBox="0 0 836 226" fill="none" xmlns="http://www.w3.org/2000/svg">
<path fill-rule="evenodd" clip-rule="evenodd" d="M429.685 39.4957H510.844V0H416.053C390.478 0.111299 361.428 20.9629 361.428 57.8246C361.428 73.9258 367.541 89.7025 380.462 99.7797C362.747 112.105 351.289 131.367 351.289 154.262C351.289 194.314 385.581 222.69 427.328 223.115H510.844V183.498H428.1C413.636 181.888 403.072 168.086 403.072 153.788C403.072 138.484 414.388 124.357 427.694 124.357H510.844V85.3495H428.06C418.633 83.9304 410.06 75.0404 410.06 62.8887C410.06 49.0953 418.309 39.4957 429.685 39.4957Z" fill="#81B33B"/>
<path fill-rule="evenodd" clip-rule="evenodd" d="M648.648 112.156C648.648 89.7334 637.598 70.7476 620.513 58.4321C632.784 47.1399 640.279 32.1732 640.279 15.7581C640.279 10.2086 639.426 4.91108 638.043 0H589.897C591.604 3.92948 592.6 9.75259 592.234 17.4183C591.604 30.1976 584.616 41.0153 573.017 43.3031H519.385V82.8576H573.97C588.457 85.5922 596.846 98.7966 596.846 111.74C596.846 126.019 586.261 139.832 571.818 141.432H515.891V181.107H572.649V181.008C614.376 180.632 648.648 152.308 648.648 112.156Z" fill="#81B33B"/>
<path fill-rule="evenodd" clip-rule="evenodd" d="M94.0977 39.657H153.985V0.000488281H86.6522C37.8862 3.36265 0 39.3927 0 90.8794C0 142.465 37.511 177.959 85.9917 181.645H153.985V141.978H94.0574C67.9921 140.843 53.7121 113.076 53.7121 91.5873C53.7121 69.683 66.7641 41.3991 94.0977 39.657Z" fill="#81B33B"/>
<path fill-rule="evenodd" clip-rule="evenodd" d="M835.999 86.8684C835.999 36.6895 802.316 0.000976562 743.1 0.000976562C690.81 0.000976562 656.051 36.3262 656.051 86.8684V145.198H775.158V105.593H703.75V86.8684C703.75 66.0787 711.754 42.5745 745.133 42.5745C775.054 42.5745 788.32 60.4782 788.32 86.8684V226H835.999V86.8684Z" fill="#81B33B"/>
<path fill-rule="evenodd" clip-rule="evenodd" d="M164.27 0.000976562V180.745H211.907V38.999H266.31C276.202 40.4474 285.954 49.4302 285.954 61.5927C285.954 73.6022 280.389 81.9666 269.743 84.4384H221.903V123.062H270.129C283.436 124.693 292.963 138.718 292.963 152.207C292.963 166.304 282.359 178.893 267.895 180.745H211.987V220.159H268.728V220.078C310.475 219.713 344.745 192.269 344.745 152.583C344.745 129.929 333.267 110.86 315.552 98.7264C327.397 90.2105 334.608 75.08 334.608 57.1763C334.608 23.2316 305.538 0.112276 279.961 0.000976562H164.27Z" fill="#81B33B"/>
</svg>
