<svg width="16" height="35" viewBox="0 0 16 35" fill="none" xmlns="http://www.w3.org/2000/svg">
<path d="M14.6231 3.83159L8.00076 10.4555L1.37841 3.83079C1.06268 3.51506 0.551935 3.51506 0.236202 3.83079C-0.0787339 4.14653 -0.0787339 4.65807 0.236202 4.9738L7.4293 12.1693C7.74423 12.485 8.25577 12.485 8.5707 12.1693L15.7638 4.97386C16.0787 4.65813 16.0787 4.1458 15.7638 3.83006C15.4497 3.51586 14.9381 3.51586 14.6231 3.83159Z" fill="#81B33B"/>
<path d="M14.6231 12.8316L8.00076 19.4555L1.37841 12.8308C1.06268 12.5151 0.551935 12.5151 0.236202 12.8308C-0.0787339 13.1465 -0.0787339 13.6581 0.236202 13.9738L7.4293 21.1693C7.74423 21.485 8.25577 21.485 8.5707 21.1693L15.7638 13.9739C16.0787 13.6581 16.0787 13.1458 15.7638 12.8301C15.4497 12.5159 14.9381 12.5159 14.6231 12.8316Z" fill="#81B33B"/>
<path d="M14.6231 22.8316L8.00076 29.4555L1.37841 22.8308C1.06268 22.5151 0.551935 22.5151 0.236202 22.8308C-0.0787339 23.1465 -0.0787339 23.6581 0.236202 23.9738L7.4293 31.1693C7.74423 31.485 8.25577 31.485 8.5707 31.1693L15.7638 23.9739C16.0787 23.6581 16.0787 23.1458 15.7638 22.8301C15.4497 22.5159 14.9381 22.5159 14.6231 22.8316Z" fill="#81B33B"/>
</svg>
