<svg width="44" height="44" viewBox="0 0 44 44" fill="none" xmlns="http://www.w3.org/2000/svg">
<g clip-path="url(#clip0)">
<path d="M15.3349 33.1258C15.1792 33.1258 15.0236 33.0856 14.8841 33.005C14.6052 32.844 14.4333 32.5463 14.4333 32.2243V11.7757C14.4333 11.4536 14.6052 11.156 14.8841 10.995C15.163 10.834 15.5067 10.834 15.7856 10.995L33.4946 21.2194C33.7736 21.3804 33.9454 21.6779 33.9454 22.0001C33.9454 22.3222 33.7736 22.6197 33.4946 22.7808L15.7856 33.005C15.6461 33.0855 15.4905 33.1258 15.3349 33.1258ZM16.2364 13.3372V30.6629L31.2409 22.0001L16.2364 13.3372Z" fill="white"/>
<path d="M22 43.9999C16.1235 43.9999 10.5989 41.7115 6.4437 37.5561C2.28838 33.4009 0 27.8764 0 22C0 16.1235 2.28838 10.5989 6.4437 6.44359C10.5989 2.28856 16.1235 0 22 0C27.8766 0 33.4012 2.28838 37.5565 6.44359C41.7118 10.5988 44.0001 16.1235 44.0001 22C44.0001 27.8764 41.7117 33.401 37.5564 37.5562C33.4012 41.7115 27.8766 43.9999 22 43.9999ZM22 1.80301C16.6052 1.80301 11.5332 3.90397 7.71861 7.71868C3.90397 11.5333 1.8031 16.6053 1.8031 22C1.8031 27.3948 3.90397 32.4668 7.71861 36.2814C11.5333 40.0961 16.6052 42.1969 22 42.1969C27.3949 42.1969 32.4669 40.096 36.2815 36.2814C40.0961 32.4668 42.197 27.3948 42.197 22C42.197 16.6053 40.0962 11.5334 36.2815 7.71868C32.4668 3.90397 27.3949 1.80301 22 1.80301Z" fill="white"/>
</g>
<defs>
<clipPath id="clip0">
<path d="M0 0H44V44H0V0Z" fill="white"/>
</clipPath>
</defs>
</svg>
