<svg width="20" height="24" viewBox="0 0 20 24" xmlns="http://www.w3.org/2000/svg">
<path  d="M18.5142 17.8009L16.0393 14.7277C16.037 14.7248 16.0346 14.722 16.0323 14.7192C15.3453 13.8948 14.2335 13.8947 13.5465 14.7192L12.4166 16.0751C11.8963 16.6997 11.054 16.6998 10.5335 16.0751C10.5333 16.0749 10.5331 16.0746 10.5328 16.0743L6.60342 11.4702C6.08302 10.8456 6.08295 9.83483 6.60342 9.21027L7.7333 7.85428C8.41865 7.03183 8.41865 5.69359 7.7333 4.87115L5.24756 1.88803C4.5622 1.06564 3.44713 1.06564 2.76181 1.88803C2.76158 1.88831 1.93306 2.88265 1.93326 2.88237C1.93306 2.88265 1.85814 2.97252 1.85794 2.9728C-0.618931 5.94524 -0.619829 10.7565 1.85834 13.7305L8.65041 21.7701C11.1218 24.736 15.1241 24.747 17.6054 21.7806C17.619 21.7656 18.4971 20.7949 18.5102 20.7792C19.1942 19.9583 19.1955 18.6237 18.5142 17.8009ZM3.59041 2.88237C3.81884 2.60823 4.19052 2.60823 4.41896 2.88237L6.90471 5.86549C7.13369 6.14035 7.13373 6.58504 6.90471 6.85989L6.49045 7.35704L3.17611 3.37957L3.59041 2.88237ZM9.47857 20.7753L2.6865 12.7358C0.772515 10.4388 0.681734 6.81662 2.36318 4.39271L5.66588 8.35625C4.80084 9.53481 4.83681 11.3388 5.77556 12.4654L9.70568 17.0704C10.645 18.1968 12.1434 18.2431 13.1283 17.2003L16.4308 21.1636C14.3911 23.1969 11.391 23.0704 9.47857 20.7753ZM17.6886 19.7763L17.2948 20.2117L13.9608 16.2107L14.3751 15.7135C14.6033 15.4397 14.9717 15.4388 15.2008 15.71C15.2053 15.7157 17.677 18.7848 17.6816 18.7904C17.9078 19.0618 17.9101 19.5015 17.6886 19.7763Z"/>
<path  d="M10.039 0C9.71547 0 9.45312 0.314838 9.45312 0.703133C9.45312 1.09143 9.71547 1.40626 10.039 1.40626C14.885 1.40626 18.8275 6.13758 18.8275 11.9531C18.8275 12.3415 19.0898 12.6563 19.4134 12.6563C19.7369 12.6563 19.9993 12.3415 19.9993 11.9531C19.9993 5.3466 15.5445 0 10.039 0Z"/>
<path  d="M11.2109 4.40552C10.8873 4.40552 10.625 4.72035 10.625 5.10865C10.625 5.49694 10.8873 5.81178 11.2109 5.81178C13.4723 5.81178 15.3121 8.01971 15.3121 10.7337C15.3121 11.122 15.5744 11.4368 15.898 11.4368C16.2215 11.4368 16.4839 11.122 16.4839 10.7337C16.4839 7.2443 14.1184 4.40552 11.2109 4.40552Z"/>
</svg>
