<svg width="38" height="40" viewBox="0 0 38 40" fill="none" xmlns="http://www.w3.org/2000/svg">
<path fill-rule="evenodd" clip-rule="evenodd" d="M25.3069 0V4.89055H12.6931V0H5.03618V4.89055H0V40H38V4.89055H32.9633V0H25.3069ZM2.67708 37.3841H35.3189V12.5505H2.67708V37.3841Z" fill="#81B33B"/>
<path fill-rule="evenodd" clip-rule="evenodd" d="M12.6472 20.0002H17.7347V14.9639H12.6472V20.0002Z" fill="#81B33B"/>
<path fill-rule="evenodd" clip-rule="evenodd" d="M20.2239 20.0002H25.3114V14.9639H20.2239V20.0002Z" fill="#81B33B"/>
<path fill-rule="evenodd" clip-rule="evenodd" d="M27.8411 20.0002H32.9286V14.9639H27.8411V20.0002Z" fill="#81B33B"/>
<path fill-rule="evenodd" clip-rule="evenodd" d="M12.6472 27.4604H17.7347V22.4241H12.6472V27.4604Z" fill="#81B33B"/>
<path fill-rule="evenodd" clip-rule="evenodd" d="M5.07031 27.4604H10.1578V22.4241H5.07031V27.4604Z" fill="#81B33B"/>
<path fill-rule="evenodd" clip-rule="evenodd" d="M20.2239 27.4604H25.3114V22.4241H20.2239V27.4604Z" fill="#81B33B"/>
<path fill-rule="evenodd" clip-rule="evenodd" d="M12.6472 34.9203H17.7347V29.884H12.6472V34.9203Z" fill="#81B33B"/>
<path fill-rule="evenodd" clip-rule="evenodd" d="M5.07031 34.9203H10.1578V29.884H5.07031V34.9203Z" fill="#81B33B"/>
<path fill-rule="evenodd" clip-rule="evenodd" d="M20.2239 34.9203H25.3114V29.884H20.2239V34.9203Z" fill="#81B33B"/>
<path fill-rule="evenodd" clip-rule="evenodd" d="M27.8411 27.4604H32.9286V22.4241H27.8411V27.4604Z" fill="#81B33B"/>
</svg>
