<svg width="42" height="40" viewBox="0 0 42 40" fill="none" xmlns="http://www.w3.org/2000/svg">
<path fill-rule="evenodd" clip-rule="evenodd" d="M25.3662 0V7.03087H32.3474L25.3662 0Z" fill="#81B33B"/>
<mask id="mask0" mask-type="alpha" maskUnits="userSpaceOnUse" x="0" y="0" width="42" height="40">
<path fill-rule="evenodd" clip-rule="evenodd" d="M0 0.000244141H41.8182V40H0V0.000244141Z" fill="white"/>
</mask>
<g mask="url(#mask0)">
<path fill-rule="evenodd" clip-rule="evenodd" d="M18.3032 34.843H26.8837V32.7739H18.3032V34.843ZM4.41311 25.6834H18.5528V23.6143H4.41311V25.6834ZM4.41311 21.3199H18.5528V19.2508H4.41311V21.3199ZM4.41311 16.9566H18.5528V14.8875H4.41311V16.9566ZM4.41311 5.58472H18.5528V3.51562H4.41311V5.58472ZM29.3018 30.1188L25.6148 31.3626L25.0528 31.3937C24.1243 31.3937 23.2454 30.9369 22.6997 30.1725C22.1584 29.4115 22.0108 28.4249 22.3053 27.5334L23.413 24.1826C23.6352 23.5017 24.0223 22.8678 24.5275 22.3539L32.3792 14.4515V9.37507H24.2307C23.6108 9.37507 23.1086 8.86726 23.1086 8.24146V0.000244141H0V40H32.3792V27.738L31.1052 28.9946C30.5886 29.5122 29.9837 29.8885 29.3018 30.1188Z" fill="#81B33B"/>
<path fill-rule="evenodd" clip-rule="evenodd" d="M25.2389 29.019L28.2641 27.998L25.5139 25.2192L24.5052 28.2783C24.3539 28.736 24.7855 29.1718 25.2389 29.019Z" fill="#81B33B"/>
<path fill-rule="evenodd" clip-rule="evenodd" d="M26.8831 23.2889L30.1769 26.6174C31.903 24.8728 35.2621 21.4781 37.8142 18.8992L34.5207 15.571L26.8831 23.2889Z" fill="#81B33B"/>
<path fill-rule="evenodd" clip-rule="evenodd" d="M41.1368 12.2098C40.729 11.7953 40.1288 11.5583 39.4924 11.5583C38.856 11.5583 38.2558 11.7953 37.8456 12.2109L36.1604 13.9138L39.4539 17.2419L41.1392 15.539C42.0452 14.6221 42.0452 13.1288 41.1368 12.2098Z" fill="#81B33B"/>
</g>
</svg>
