<svg width="39" height="40" viewBox="0 0 39 40" fill="none" xmlns="http://www.w3.org/2000/svg">
<path fill-rule="evenodd" clip-rule="evenodd" d="M18.7776 3.60722H20.2564V0H18.7776V3.60722Z" fill="#81B33B"/>
<path fill-rule="evenodd" clip-rule="evenodd" d="M19.4633 5.03662C13.8963 5.03662 9.38354 9.51282 9.38354 15.034C9.38354 18.8148 11.5002 22.105 14.6218 23.8037V25.0314H18.7326V22.5408L16.759 20.5834L17.8051 19.5462L19.4633 21.1909L21.1212 19.5462L22.1672 20.5834L20.2118 22.5228V25.0314H24.3392V23.7841C27.4415 22.0795 29.5431 18.8007 29.5431 15.034C29.5431 9.51282 25.03 5.03662 19.4633 5.03662Z" fill="#81B33B"/>
<mask id="mask0" mask-type="alpha" maskUnits="userSpaceOnUse" x="0" y="0" width="39" height="41">
<path fill-rule="evenodd" clip-rule="evenodd" d="M0 40.0005H39V0.0012207H0V40.0005Z" fill="white"/>
</mask>
<g mask="url(#mask0)">
<path fill-rule="evenodd" clip-rule="evenodd" d="M30.7983 15.597H34.4353V14.1299H30.7983V15.597Z" fill="#81B33B"/>
<path fill-rule="evenodd" clip-rule="evenodd" d="M4.56494 15.597H8.2015V14.1299H4.56494V15.597Z" fill="#81B33B"/>
<path fill-rule="evenodd" clip-rule="evenodd" d="M27.9724 22.2688L30.5444 24.8197L29.4983 25.8564L26.9268 23.3059L27.9724 22.2688Z" fill="#81B33B"/>
<path fill-rule="evenodd" clip-rule="evenodd" d="M9.42581 3.87085L11.9973 6.42134L10.9513 7.45847L8.38013 4.90798L9.42581 3.87085Z" fill="#81B33B"/>
<path fill-rule="evenodd" clip-rule="evenodd" d="M12.0517 23.3059L9.47976 25.8564L8.43408 24.8193L11.006 22.2688L12.0517 23.3059Z" fill="#81B33B"/>
<path fill-rule="evenodd" clip-rule="evenodd" d="M30.6004 4.90798L28.0288 7.45886L26.9832 6.42134L29.5547 3.87085L30.6004 4.90798Z" fill="#81B33B"/>
<path fill-rule="evenodd" clip-rule="evenodd" d="M14.6199 27.5507H24.3373V26.053H14.6199V27.5507Z" fill="#81B33B"/>
<path fill-rule="evenodd" clip-rule="evenodd" d="M24.3373 28.5388H14.6199V30.8745H17.121V33.1981H21.8361V30.8745H24.3373V28.5388Z" fill="#81B33B"/>
<path fill-rule="evenodd" clip-rule="evenodd" d="M20.8358 38.6037H18.2551C18.2551 38.6037 18.2271 32.7834 0 32.7834V37.2671H15.2375V38.5637H0V40.0002H39.0004V38.5637H23.7629V37.2671H39.0004V32.7834C39.0004 32.7834 20.8358 33.0594 20.8358 38.6037Z" fill="#81B33B"/>
</g>
</svg>
