<svg width="38" height="40" viewBox="0 0 38 40" fill="none" xmlns="http://www.w3.org/2000/svg">
<path fill-rule="evenodd" clip-rule="evenodd" d="M2.67708 18.2094H35.3187V2.61673H2.67708V18.2094ZM29.784 31.3333C27.8526 31.3333 26.2865 29.7834 26.2865 27.8709C26.2865 25.9589 27.8526 24.409 29.784 24.409C31.7154 24.409 33.2816 25.9589 33.2816 27.8709C33.2816 29.7834 31.7154 31.3333 29.784 31.3333ZM8.42904 31.3333C6.49714 31.3333 4.93097 29.7834 4.93097 27.8709C4.93097 25.9589 6.49714 24.409 8.42904 24.409C10.3604 24.409 11.9261 25.9589 11.9261 27.8709C11.9261 29.7834 10.3604 31.3333 8.42904 31.3333ZM0 0V35.1094H3.37201V40H11.0286V35.1094H27.0897V40H34.7468V35.1094H38V0H0Z" fill="#81B33B"/>
</svg>
