<svg width="17" height="17" viewBox="0 0 17 17" fill="none" xmlns="http://www.w3.org/2000/svg">
<path fill-rule="evenodd" clip-rule="evenodd" d="M5.94824 9.28923C5.94824 9.07858 5.7775 8.90784 5.56611 8.90784H4.23198C4.02133 8.90784 3.85059 9.07858 3.85059 9.28923V10.6234C3.85059 10.834 4.02133 11.0048 4.23198 11.0048H5.56611C5.7775 11.0048 5.94824 10.834 5.94824 10.6234V9.28923Z" fill="#81B33B"/>
<path fill-rule="evenodd" clip-rule="evenodd" d="M9.28118 9.28923C9.28118 9.07858 9.11045 8.90784 8.89905 8.90784H7.56566C7.35501 8.90784 7.18353 9.07858 7.18353 9.28923V10.6234C7.18353 10.834 7.35501 11.0048 7.56566 11.0048H8.89905C9.11045 11.0048 9.28118 10.834 9.28118 10.6234V9.28923Z" fill="#81B33B"/>
<path fill-rule="evenodd" clip-rule="evenodd" d="M12.6145 9.28923C12.6145 9.07858 12.4438 8.90784 12.2324 8.90784H10.899C10.6876 8.90784 10.5161 9.07858 10.5161 9.28923V10.6234C10.5161 10.834 10.6876 11.0048 10.899 11.0048H12.2324C12.4438 11.0048 12.6145 10.834 12.6145 10.6234V9.28923Z" fill="#81B33B"/>
<path fill-rule="evenodd" clip-rule="evenodd" d="M5.94824 12.6225C5.94824 12.4118 5.7775 12.2404 5.56611 12.2404H4.23198C4.02133 12.2404 3.85059 12.4118 3.85059 12.6225V13.9559C3.85059 14.1673 4.02133 14.338 4.23198 14.338H5.56611C5.7775 14.338 5.94824 14.1673 5.94824 13.9559V12.6225Z" fill="#81B33B"/>
<path fill-rule="evenodd" clip-rule="evenodd" d="M9.28118 12.6225C9.28118 12.4118 9.11045 12.2404 8.89905 12.2404H7.56566C7.35501 12.2404 7.18353 12.4118 7.18353 12.6225V13.9559C7.18353 14.1673 7.35501 14.338 7.56566 14.338H8.89905C9.11045 14.338 9.28118 14.1673 9.28118 13.9559V12.6225Z" fill="#81B33B"/>
<path fill-rule="evenodd" clip-rule="evenodd" d="M12.6145 12.6225C12.6145 12.4118 12.4438 12.2404 12.2324 12.2404H10.899C10.6876 12.2404 10.5161 12.4118 10.5161 12.6225V13.9559C10.5161 14.1673 10.6876 14.338 10.899 14.338H12.2324C12.4438 14.338 12.6145 14.1673 12.6145 13.9559V12.6225Z" fill="#81B33B"/>
<mask id="mask0" mask-type="alpha" maskUnits="userSpaceOnUse" x="0" y="1" width="17" height="16">
<path fill-rule="evenodd" clip-rule="evenodd" d="M6.10352e-05 1.86792H16.4649V16.838H6.10352e-05V1.86792Z" fill="white"/>
</mask>
<g mask="url(#mask0)">
<path fill-rule="evenodd" clip-rule="evenodd" d="M14.5107 14.5765C14.5107 14.9365 14.218 15.2292 13.858 15.2292H2.57742C2.21746 15.2292 1.92551 14.9365 1.92551 14.5765V8.41071C1.92551 8.05001 2.21746 7.75806 2.57742 7.75806H13.858C14.218 7.75806 14.5107 8.05001 14.5107 8.41071V14.5765ZM14.9992 1.87457V3.91162C14.9992 4.83257 14.252 5.57392 13.3318 5.57392H12.28C11.359 5.57392 10.6029 4.83257 10.6029 3.91162V1.86792H5.8621V3.91162C5.8621 4.83257 5.10524 5.57392 4.18502 5.57392H3.1325C2.21228 5.57392 1.46576 4.83257 1.46576 3.91162V1.87457C0.660844 1.89896 6.10352e-05 2.56492 6.10352e-05 3.38314V15.3201C6.10352e-05 16.1538 0.675626 16.8383 1.50937 16.8383H14.9556C15.7879 16.8383 16.4649 16.1524 16.4649 15.3201V3.38314C16.4649 2.56492 15.8034 1.89896 14.9992 1.87457Z" fill="#81B33B"/>
</g>
<path fill-rule="evenodd" clip-rule="evenodd" d="M3.12922 4.48233H4.16917C4.48478 4.48233 4.74126 4.22659 4.74126 3.91098V0.571592C4.74126 0.255983 4.48478 0.000244141 4.16917 0.000244141H3.12922C2.81361 0.000244141 2.55713 0.255983 2.55713 0.571592V3.91098C2.55713 4.22659 2.81361 4.48233 3.12922 4.48233Z" fill="#81B33B"/>
<path fill-rule="evenodd" clip-rule="evenodd" d="M12.2666 4.48233H13.3066C13.6229 4.48233 13.8786 4.22659 13.8786 3.91098V0.571592C13.8786 0.255983 13.6229 0.000244141 13.3066 0.000244141H12.2666C11.951 0.000244141 11.6953 0.255983 11.6953 0.571592V3.91098C11.6953 4.22659 11.951 4.48233 12.2666 4.48233Z" fill="#81B33B"/>
</svg>
