
<svg width="17" height="17" viewBox="0 0 17 17" fill="none" xmlns="http://www.w3.org/2000/svg">
  <path fill-rule="evenodd" clip-rule="evenodd" d="M5.94821 9.28935C5.94821 9.0787 5.77747 8.90796 5.56608 8.90796H4.23195C4.02129 8.90796 3.85056 9.0787 3.85056 9.28935V10.6235C3.85056 10.8341 4.02129 11.0049 4.23195 11.0049H5.56608C5.77747 11.0049 5.94821 10.8341 5.94821 10.6235V9.28935Z" fill="#81B33B"/>
  <path fill-rule="evenodd" clip-rule="evenodd" d="M9.28118 9.28935C9.28118 9.0787 9.11044 8.90796 8.89905 8.90796H7.56566C7.355 8.90796 7.18353 9.0787 7.18353 9.28935V10.6235C7.18353 10.8341 7.355 11.0049 7.56566 11.0049H8.89905C9.11044 11.0049 9.28118 10.8341 9.28118 10.6235V9.28935Z" fill="#81B33B"/>
  <path fill-rule="evenodd" clip-rule="evenodd" d="M12.6145 9.28935C12.6145 9.0787 12.4438 8.90796 12.2324 8.90796H10.899C10.6876 8.90796 10.5161 9.0787 10.5161 9.28935V10.6235C10.5161 10.8341 10.6876 11.0049 10.899 11.0049H12.2324C12.4438 11.0049 12.6145 10.8341 12.6145 10.6235V9.28935Z" fill="#81B33B"/>
  <path fill-rule="evenodd" clip-rule="evenodd" d="M5.94821 12.6226C5.94821 12.412 5.77747 12.2405 5.56608 12.2405H4.23195C4.02129 12.2405 3.85056 12.412 3.85056 12.6226V13.956C3.85056 14.1674 4.02129 14.3381 4.23195 14.3381H5.56608C5.77747 14.3381 5.94821 14.1674 5.94821 13.956V12.6226Z" fill="#81B33B"/>
  <path fill-rule="evenodd" clip-rule="evenodd" d="M9.28118 12.6226C9.28118 12.412 9.11044 12.2405 8.89905 12.2405H7.56566C7.355 12.2405 7.18353 12.412 7.18353 12.6226V13.956C7.18353 14.1674 7.355 14.3381 7.56566 14.3381H8.89905C9.11044 14.3381 9.28118 14.1674 9.28118 13.956V12.6226Z" fill="#81B33B"/>
  <path fill-rule="evenodd" clip-rule="evenodd" d="M12.6145 12.6226C12.6145 12.412 12.4438 12.2405 12.2324 12.2405H10.899C10.6876 12.2405 10.5161 12.412 10.5161 12.6226V13.956C10.5161 14.1674 10.6876 14.3381 10.899 14.3381H12.2324C12.4438 14.3381 12.6145 14.1674 12.6145 13.956V12.6226Z" fill="#81B33B"/>
  <mask id="mask0" mask-type="alpha" maskUnits="userSpaceOnUse" x="0" y="1" width="17" height="16">
    <path fill-rule="evenodd" clip-rule="evenodd" d="M6.10352e-05 1.86792H16.4649V16.838H6.10352e-05V1.86792Z" fill="white"/>
  </mask>
  <g mask="url(#mask0)">
    <path fill-rule="evenodd" clip-rule="evenodd" d="M14.5107 14.5765C14.5107 14.9365 14.218 15.2292 13.858 15.2292H2.57742C2.21746 15.2292 1.92551 14.9365 1.92551 14.5765V8.41071C1.92551 8.05001 2.21746 7.75806 2.57742 7.75806H13.858C14.218 7.75806 14.5107 8.05001 14.5107 8.41071V14.5765ZM14.9992 1.87457V3.91162C14.9992 4.83257 14.252 5.57392 13.3318 5.57392H12.28C11.359 5.57392 10.6029 4.83257 10.6029 3.91162V1.86792H5.8621V3.91162C5.8621 4.83257 5.10524 5.57392 4.18502 5.57392H3.1325C2.21228 5.57392 1.46576 4.83257 1.46576 3.91162V1.87457C0.660844 1.89896 6.10352e-05 2.56492 6.10352e-05 3.38314V15.3201C6.10352e-05 16.1538 0.675626 16.8383 1.50937 16.8383H14.9556C15.7879 16.8383 16.4649 16.1524 16.4649 15.3201V3.38314C16.4649 2.56492 15.8034 1.89896 14.9992 1.87457Z" fill="#81B33B"/>
  </g>
  <path fill-rule="evenodd" clip-rule="evenodd" d="M3.12925 4.48233H4.1692C4.48481 4.48233 4.74129 4.22659 4.74129 3.91098V0.571592C4.74129 0.255983 4.48481 0.000244141 4.1692 0.000244141H3.12925C2.81364 0.000244141 2.55716 0.255983 2.55716 0.571592V3.91098C2.55716 4.22659 2.81364 4.48233 3.12925 4.48233Z" fill="#81B33B"/>
  <path fill-rule="evenodd" clip-rule="evenodd" d="M12.2666 4.48233H13.3066C13.6229 4.48233 13.8786 4.22659 13.8786 3.91098V0.571592C13.8786 0.255983 13.6229 0.000244141 13.3066 0.000244141H12.2666C11.951 0.000244141 11.6953 0.255983 11.6953 0.571592V3.91098C11.6953 4.22659 11.951 4.48233 12.2666 4.48233Z" fill="#81B33B"/>
</svg>
