<svg width="13" height="28" viewBox="0 0 13 28" fill="none" xmlns="http://www.w3.org/2000/svg">
<path d="M11.8813 3.06508L6.50062 8.36424L1.11996 3.06444C0.863424 2.81185 0.448447 2.81185 0.191914 3.06444C-0.0639713 3.31703 -0.0639713 3.72626 0.191914 3.97884L6.0363 9.73523C6.29219 9.98782 6.70781 9.98782 6.9637 9.73523L12.8081 3.9789C13.064 3.72631 13.064 3.31644 12.8081 3.06386C12.5528 2.81249 12.1372 2.81249 11.8813 3.06508Z" fill="#81B33B"/>
<path d="M11.8813 10.2653L6.50062 15.5644L1.11996 10.2646C0.863424 10.012 0.448447 10.012 0.191914 10.2646C-0.0639713 10.5172 -0.0639713 10.9265 0.191914 11.179L6.0363 16.9354C6.29219 17.188 6.70781 17.188 6.9637 16.9354L12.8081 11.1791C13.064 10.9265 13.064 10.5166 12.8081 10.2641C12.5528 10.0127 12.1372 10.0127 11.8813 10.2653Z" fill="#81B33B"/>
</svg>
